<?xml version="1.0" standalone="no"?>
<!DOCTYPE svg PUBLIC "-//W3C//DTD SVG 20010904//EN"
 "http://www.w3.org/TR/2001/REC-SVG-20010904/DTD/svg10.dtd">
<svg version="1.0" xmlns="http://www.w3.org/2000/svg"
 width="500.000000pt" height="500.000000pt" viewBox="0 0 500.000000 500.000000"
 preserveAspectRatio="xMidYMid meet">

<g transform="translate(0.000000,500.000000) scale(0.100000,-0.100000)"
fill="#000000" stroke="none">
<path d="M4604 4523 c-34 -29 -47 -75 -35 -118 18 -68 -16 -93 -71 -51 -18 13
-55 30 -81 37 -160 40 -448 -133 -608 -364 -42 -60 -99 -186 -99 -217 0 -10
-12 -28 -26 -41 -65 -59 -74 -69 -74 -90 0 -42 -38 -103 -80 -129 -22 -14 -43
-32 -45 -41 -3 -10 -21 -24 -39 -33 -18 -8 -62 -46 -98 -83 -36 -37 -79 -77
-96 -88 -67 -44 -129 -93 -189 -147 -68 -63 -66 -63 -142 -48 -36 7 -68 6
-103 -1 -44 -10 -61 -21 -117 -78 -36 -37 -80 -82 -97 -101 -20 -23 -57 -46
-108 -67 l-77 -31 -28 24 c-23 19 -40 24 -83 24 -30 0 -59 -5 -65 -11 -18 -18
-46 -2 -70 38 -34 60 -119 149 -173 182 -28 17 -50 32 -50 33 0 2 7 21 15 43
22 61 19 107 -11 150 -24 36 -25 41 -21 174 2 75 10 175 17 222 15 101 8 152
-26 185 -22 23 -25 24 -53 10 -16 -9 -42 -29 -57 -46 -16 -16 -34 -30 -39 -30
-6 0 -46 36 -90 80 -44 45 -108 99 -143 122 -58 37 -73 42 -158 52 -142 15
-234 -1 -354 -61 -170 -86 -232 -164 -279 -353 -30 -120 -35 -169 -22 -216 6
-23 8 -62 5 -88 l-7 -46 -67 -20 c-72 -21 -120 -57 -120 -89 0 -61 34 -96 145
-151 l70 -35 -3 -90 c-4 -85 -6 -93 -42 -145 -49 -71 -75 -124 -90 -180 -19
-74 -38 -107 -86 -147 -132 -109 -127 -102 -126 -177 1 -77 24 -126 89 -188
39 -38 171 -128 187 -128 5 0 24 -11 41 -24 24 -19 34 -35 38 -68 12 -84 37
-145 79 -192 44 -51 101 -91 141 -102 62 -15 42 -40 -129 -167 -56 -41 -110
-87 -120 -101 -11 -15 -82 -77 -158 -139 -138 -110 -183 -148 -259 -218 -45
-40 -45 -69 1 -93 39 -20 72 -3 155 78 59 57 158 138 194 159 6 4 25 -4 41
-18 25 -21 31 -23 42 -10 9 11 9 22 -1 49 -12 32 -11 36 22 74 19 22 50 52 69
68 19 15 55 46 80 69 66 60 230 159 242 147 7 -7 6 -37 -2 -91 -16 -98 -4
-146 47 -192 30 -26 41 -29 103 -29 l68 0 16 -43 c25 -65 46 -140 46 -162 0
-23 36 -123 93 -258 62 -150 107 -175 213 -121 l52 26 55 -26 c98 -46 135 -52
213 -32 38 9 104 37 147 62 l78 45 65 -48 c36 -26 95 -72 132 -101 37 -29 127
-82 199 -118 148 -74 165 -76 216 -21 46 49 60 92 59 179 -1 63 5 98 34 190
30 96 36 131 40 233 6 127 7 120 -48 197 -11 15 -7 23 22 54 34 35 36 36 95
30 33 -3 103 -7 155 -8 86 -3 100 -6 145 -34 32 -19 59 -46 74 -73 22 -40 26
-43 58 -38 32 6 145 69 187 106 10 9 27 33 37 53 10 20 44 61 75 90 68 63 76
72 152 166 63 78 100 156 109 234 7 59 -7 83 -77 128 l-52 34 -97 -32 -97 -32
-36 -79 c-21 -43 -47 -87 -60 -99 -179 -162 -190 -168 -255 -159 -173 26 -232
41 -250 65 -7 9 -13 34 -13 57 0 23 -4 45 -9 51 -6 5 -16 34 -24 64 -25 95
-43 126 -97 169 -45 36 -172 103 -292 155 -47 19 -48 38 -5 65 56 34 77 64 83
117 6 45 3 53 -28 94 -34 46 -43 52 -158 120 -36 21 -67 45 -68 55 -7 31 8 64
38 85 30 21 31 21 75 4 57 -21 126 -14 202 21 65 30 144 93 173 139 25 42 26
102 1 140 -25 38 -20 47 65 116 37 30 102 84 145 120 89 74 153 123 189 142
14 8 54 44 90 81 54 54 70 65 89 60 27 -7 65 11 108 50 30 28 36 30 91 24 56
-6 87 -1 177 25 59 18 175 76 212 106 17 15 65 51 105 81 119 89 213 208 264
336 27 66 28 112 8 212 -5 25 -2 33 16 43 17 9 28 8 56 -9 61 -36 164 -24 164
19 0 35 -47 60 -111 60 l-59 0 0 59 c0 41 -5 65 -18 81 -17 21 -18 21 -38 3z
m36 -75 c0 -46 -8 -68 -25 -68 -31 0 -39 58 -14 100 24 39 39 28 39 -32z
m-297 -108 c3 -11 1 -18 -4 -14 -5 3 -9 1 -9 -5 0 -5 9 -13 20 -16 11 -3 20
-11 20 -16 0 -16 -14 -10 -35 15 -15 17 -25 21 -40 16 -11 -4 -29 -4 -40 1
-22 8 -8 13 31 10 12 -1 24 5 27 13 9 22 24 20 30 -4z m48 -17 c-9 -16 -10
-14 -11 12 0 21 3 26 11 18 8 -8 8 -16 0 -30z m396 22 c32 -22 19 -45 -26 -45
-40 1 -102 28 -109 48 -6 18 108 16 135 -3z m-284 -49 c21 -16 22 -30 2 -46
-18 -15 -20 -61 -3 -78 10 -10 10 -15 -2 -22 -25 -16 -35 -5 -35 36 0 35 -3
39 -25 39 -18 1 -24 6 -22 18 2 9 -2 17 -7 17 -6 0 -8 7 -5 15 4 8 15 15 25
15 21 0 26 -16 7 -23 -8 -3 -6 -6 5 -6 10 -1 17 6 17 17 0 33 15 39 43 18z
m-357 -46 c8 0 14 -5 14 -11 0 -7 -12 -10 -30 -7 -18 3 -35 -1 -41 -9 -15 -17
-29 -17 -29 0 0 17 39 37 58 31 8 -2 20 -4 28 -4z m-96 -30 c0 -5 -4 -10 -10
-10 -5 0 -10 5 -10 10 0 6 5 10 10 10 6 0 10 -4 10 -10z m323 -38 c22 -20 22
-50 -3 -106 -58 -136 -156 -231 -324 -316 -175 -88 -236 -98 -236 -37 0 39 79
182 142 257 57 67 160 151 243 197 62 34 142 37 178 5z m-373 -26 c0 -2 -7 -6
-15 -10 -8 -3 -15 -1 -15 4 0 6 7 10 15 10 8 0 15 -2 15 -4z m450 -56 c0 -32
-14 -40 -24 -14 -5 14 8 44 20 44 2 0 4 -13 4 -30z m-518 -12 c-6 -25 -30 -47
-50 -48 -15 0 -3 28 24 54 22 23 33 20 26 -6z m588 -57 c-15 -29 -50 -47 -50
-26 0 8 5 15 10 15 6 0 10 5 10 12 0 6 8 19 18 28 21 21 29 2 12 -29z m-3110
19 l45 -13 -32 -9 c-34 -9 -48 -22 -38 -38 4 -6 15 -5 30 2 19 9 29 7 53 -11
17 -11 36 -21 43 -21 7 0 43 -18 81 -41 46 -28 77 -55 97 -87 17 -26 35 -52
41 -59 5 -7 10 -19 10 -27 0 -8 5 -18 10 -21 12 -7 14 -45 2 -45 -4 0 -18 7
-31 17 -21 14 -29 14 -59 3 -45 -16 -67 -43 -83 -98 -9 -33 -9 -49 0 -68 15
-34 36 -25 37 17 1 63 4 78 20 93 25 25 29 19 26 -34 -5 -61 24 -110 65 -110
27 0 63 33 64 59 0 10 3 8 9 -7 5 -12 15 -29 22 -36 11 -12 15 -12 29 1 18 15
17 20 -16 118 -27 79 -28 85 -16 85 16 0 48 -56 67 -115 18 -55 29 -155 17
-155 -4 0 -18 12 -31 28 l-23 27 6 -55 c4 -30 9 -74 12 -98 8 -67 -36 -167
-101 -230 -58 -57 -146 -112 -178 -112 -15 0 -30 -4 -33 -10 -9 -14 -200 -13
-244 1 -92 30 -103 40 -96 89 3 19 8 80 10 134 3 54 8 103 11 108 3 5 6 37 7
72 2 46 7 70 20 84 21 23 54 34 63 21 3 -5 -2 -9 -10 -9 -19 0 -30 -41 -22
-81 7 -35 32 -64 63 -72 31 -7 73 27 73 59 0 14 4 33 10 43 7 15 2 27 -24 57
-31 36 -37 38 -89 38 -44 0 -61 -4 -79 -21 -31 -29 -46 -18 -54 39 -7 48 -5
52 48 110 23 24 25 30 12 35 -9 3 -19 1 -23 -4 -6 -10 -45 -33 -56 -33 -3 0
-5 42 -4 93 1 69 6 102 21 130 14 29 16 42 8 52 -8 10 -4 16 20 26 35 16 34
35 -1 31 -43 -5 -66 -42 -74 -118 -11 -102 -10 -189 4 -274 7 -41 15 -102 18
-135 3 -33 9 -65 15 -72 12 -15 9 -212 -6 -299 -10 -56 -36 -131 -53 -153 -8
-11 -33 25 -33 48 0 27 -91 267 -149 391 l-16 35 -3 -27 c-2 -15 2 -37 8 -49
10 -17 9 -20 -2 -17 -37 12 -78 169 -78 299 0 70 6 113 20 158 12 34 18 65 16
70 -18 28 191 171 250 171 8 0 24 4 34 10 24 13 115 27 160 24 19 -1 55 -7 80
-14z m2482 -60 c4 0 8 -4 8 -10 0 -14 -27 -12 -34 3 -5 10 -7 10 -12 0 -6 -13
-34 -18 -34 -7 0 4 10 16 23 28 21 20 23 20 31 4 5 -10 13 -18 18 -18z m556
17 c21 -25 -13 -97 -45 -97 -7 0 -13 7 -13 15 0 8 6 15 14 15 26 0 29 21 7 41
-12 11 -21 24 -21 29 0 15 46 12 58 -3z m-88 -88 c0 -12 -27 -11 -35 1 -11 17
5 32 21 19 8 -6 14 -15 14 -20z m-510 -3 c0 -7 -10 -12 -22 -12 -13 1 -23 -5
-23 -13 0 -8 -7 -15 -16 -16 -11 -2 -15 3 -12 19 7 36 73 55 73 22z m-1928
-50 c9 -13 10 -142 2 -173 -7 -24 -34 -32 -34 -10 0 6 -18 36 -40 65 -46 60
-46 77 1 116 29 25 55 25 71 2z m2411 -16 c-6 -23 -33 -15 -33 10 0 13 6 17
19 13 12 -3 17 -11 14 -23z m59 20 c22 0 1 -45 -29 -63 -34 -20 -44 -10 -17
17 10 10 13 24 9 37 -6 18 -4 21 10 16 9 -4 21 -7 27 -7z m-112 -4 c0 -3 -4
-8 -10 -11 -5 -3 -10 -1 -10 4 0 6 5 11 10 11 6 0 10 -2 10 -4z m-468 -41 c-4
-23 -35 -55 -54 -55 -5 0 -8 19 -8 41 0 36 2 41 20 36 11 -3 23 -1 26 4 10 17
21 0 16 -26z m-2991 -108 c-6 -6 -11 -30 -11 -54 0 -36 -3 -43 -20 -43 -16 0
-20 7 -20 34 0 19 5 38 10 41 6 3 10 14 10 23 0 10 8 29 18 42 l17 25 3 -29
c2 -16 -1 -33 -7 -39z m3344 53 c-3 -5 -13 -10 -21 -10 -8 0 -14 5 -14 10 0 6
9 10 21 10 11 0 17 -4 14 -10z m-459 -59 c0 -16 -3 -17 -14 -9 -12 10 -7 19
13 28 1 0 1 -9 1 -19z m388 -6 c-5 -19 -2 -25 10 -25 9 0 16 5 16 10 0 16 30
12 37 -5 8 -22 -4 -30 -21 -16 -10 8 -16 9 -21 2 -3 -6 -18 -10 -33 -9 -15 1
-40 1 -56 0 -28 -2 -28 -3 -13 -20 10 -10 17 -23 17 -29 0 -17 -28 -9 -45 13
-15 19 -15 19 -30 0 -11 -15 -15 -16 -15 -5 0 28 51 62 89 61 33 -1 35 0 17
13 -15 11 -16 15 -5 19 8 2 21 7 29 9 27 10 30 7 24 -18z m-431 -62 c-7 -2
-19 -2 -25 0 -7 3 -2 5 12 5 14 0 19 -2 13 -5z m217 -8 c0 -8 -2 -15 -4 -15
-2 0 -6 7 -10 15 -3 8 -1 15 4 15 6 0 10 -7 10 -15z m-35 -5 c3 -6 -1 -13 -10
-16 -14 -6 -13 -10 6 -30 12 -13 18 -24 12 -24 -6 0 -16 7 -23 15 -7 8 -21 15
-31 15 -30 0 -31 18 -2 33 35 19 40 19 48 7z m83 -19 c-2 -16 -10 -27 -22 -29
-13 -3 -16 0 -10 10 5 7 7 20 6 29 -2 9 4 16 13 16 11 0 15 -8 13 -26z m-2183
-32 c12 -23 12 -29 1 -38 -21 -17 -41 -4 -55 36 -11 29 -11 37 0 44 16 10 35
-5 54 -42z m1945 25 c0 -8 -5 -12 -10 -9 -6 4 -8 11 -5 16 9 14 15 11 15 -7z
m-2877 -31 c3 -5 7 -26 11 -48 5 -34 2 -45 -19 -68 -21 -24 -28 -27 -40 -17
-22 18 -18 77 6 111 20 29 34 36 42 22z m2761 -76 c7 -6 6 -7 -4 -4 -8 2 -16
12 -17 23 -2 13 -1 15 4 4 3 -8 11 -19 17 -23z m-34 3 c0 -5 -5 -10 -11 -10
-5 0 -7 5 -4 10 3 6 8 10 11 10 2 0 4 -4 4 -10z m-2160 -62 c17 -28 18 -35 5
-47 -22 -22 -65 10 -65 49 0 42 34 41 60 -2z m2180 10 c0 -18 -29 -38 -44 -32
-9 3 -16 14 -16 23 0 13 8 18 30 18 17 0 30 -4 30 -9z m-80 -34 c0 -14 -4 -23
-10 -19 -5 3 -10 15 -10 26 0 10 5 19 10 19 6 0 10 -12 10 -26z m-2630 -9 c0
-7 3 -27 6 -44 6 -27 4 -31 -14 -31 -23 0 -38 45 -27 79 7 21 35 18 35 -4z
m2580 -11 c0 -6 7 -15 16 -18 8 -3 12 -11 9 -17 -5 -7 -13 -5 -24 5 -20 18
-41 21 -41 6 0 -5 5 -10 10 -10 6 0 10 -4 10 -10 0 -5 -8 -10 -19 -10 -10 0
-21 -9 -24 -20 -3 -11 -12 -20 -21 -20 -23 0 -20 10 19 55 19 22 35 42 35 46
0 3 7 6 15 6 8 0 15 -6 15 -13z m-2657 -24 c3 -13 0 -20 -9 -20 -8 0 -14 9
-14 20 0 11 4 20 9 20 5 0 11 -9 14 -20z m2637 -60 c0 -5 -5 -10 -11 -10 -5 0
-7 5 -4 10 3 6 8 10 11 10 2 0 4 -4 4 -10z m-1465 -30 c19 -36 13 -65 -28
-143 -30 -57 -30 -59 -13 -88 22 -38 14 -94 -19 -133 l-24 -27 -14 23 c-8 13
-17 42 -21 66 -6 37 -3 46 19 66 27 25 32 45 13 64 -9 9 -7 22 9 54 33 70 43
98 43 123 0 34 16 31 35 -5z m1342 -27 c-3 -3 -10 -2 -16 2 -7 4 -7 10 2 20
10 11 13 11 15 -2 2 -8 1 -17 -1 -20z m56 30 c3 -5 -5 -8 -18 -8 -13 0 -21 3
-18 8 2 4 10 7 18 7 8 0 16 -3 18 -7z m-2429 -9 c31 -5 46 -12 46 -21 0 -12
-9 -14 -47 -8 -88 13 -126 13 -150 2 -42 -19 -18 -30 68 -32 67 -1 92 -5 125
-23 38 -21 60 -52 47 -66 -11 -11 -43 15 -43 34 0 23 -18 27 -26 5 -9 -23 22
-63 61 -79 39 -17 43 -26 18 -42 -19 -12 -41 -11 -138 4 -106 17 -151 30 -222
64 -47 23 -67 43 -77 74 -9 28 28 74 59 74 13 0 27 5 30 10 7 11 176 14 249 4z
m2352 -55 c9 -15 -41 -61 -91 -84 -22 -10 -48 -25 -57 -33 -10 -8 -18 -12 -18
-7 0 4 -7 2 -15 -5 -25 -21 -37 -1 -18 30 19 32 39 44 48 30 11 -17 23 -11 29
15 7 27 25 32 44 13 9 -9 12 -6 12 13 0 14 3 29 7 32 10 11 51 8 59 -4z m-295
-160 c33 -23 36 -40 12 -64 -13 -14 -29 -16 -74 -12 -65 6 -73 2 -83 -37 -12
-51 -53 -93 -114 -117 -31 -12 -70 -33 -85 -46 -16 -13 -32 -23 -37 -23 -5 0
-24 -15 -43 -32 -145 -136 -189 -170 -203 -155 -4 4 -6 41 -5 83 2 92 -1 88
142 163 82 43 113 65 144 104 96 120 152 155 248 156 54 1 75 -3 98 -20z
m-976 -15 c26 -28 29 -36 19 -47 -16 -16 -74 37 -74 68 0 15 35 1 55 -21z
m1090 -4 c-3 -5 -12 -10 -18 -10 -7 0 -6 4 3 10 19 12 23 12 15 0z m-1305 -22
c0 -16 -3 -19 -11 -11 -6 6 -8 16 -5 22 11 17 16 13 16 -11z m-916 -20 c3 3 6
0 6 -7 0 -8 8 -11 19 -8 25 6 117 -84 108 -106 -3 -9 0 -21 8 -27 25 -20 28
-61 6 -81 -22 -21 -43 -83 -34 -105 11 -29 -24 -12 -72 36 -27 28 -53 50 -57
50 -5 0 -8 6 -8 13 0 7 -5 18 -12 25 -16 16 -37 82 -32 97 3 7 1 16 -4 19 -6
3 -6 23 -1 48 4 24 8 46 9 50 0 4 13 3 29 -2 16 -4 32 -6 35 -2z m873 -50 c-3
-9 4 -25 14 -34 21 -19 26 -50 7 -38 -14 9 11 -26 27 -38 5 -4 2 -10 -8 -14
-9 -3 -17 -11 -17 -17 0 -6 -8 -19 -17 -30 -10 -11 -12 -17 -5 -13 17 10 15
-10 -4 -39 -9 -13 -13 -28 -10 -33 7 -12 -32 -48 -41 -38 -4 3 -8 28 -10 54
-10 136 -17 213 -25 239 -1 7 13 21 32 31 32 16 36 17 48 3 7 -9 11 -24 9 -33z
m-717 21 c0 -11 -27 -12 -34 0 -3 4 -3 11 0 14 8 8 34 -3 34 -14z m183 -26
c15 -31 13 -83 -5 -116 -11 -21 -12 -20 -29 18 -22 51 -23 75 -3 103 19 28 21
28 37 -5z m930 -13 c9 -11 17 -27 17 -35 0 -8 5 -15 10 -15 6 0 10 -11 10 -24
0 -14 5 -28 11 -31 6 -5 9 -56 8 -143 -2 -125 -4 -142 -28 -192 -19 -39 -33
-56 -49 -58 -27 -4 -27 0 -3 70 47 135 51 274 12 383 -11 32 -21 61 -21 62 0
10 18 0 33 -17z m890 -19 c14 -12 27 -31 30 -41 12 -46 -75 -162 -143 -192
-76 -33 -92 -38 -154 -44 -59 -6 -66 -5 -89 18 -27 27 -40 67 -28 87 6 10 19
2 51 -31 29 -29 45 -39 48 -29 2 7 1 16 -4 20 -15 11 -46 72 -40 78 15 16 67
3 110 -26 37 -25 51 -30 59 -21 9 9 1 21 -33 50 l-45 38 23 21 c25 21 34 20
100 -12 23 -11 45 -17 49 -14 8 8 -36 57 -51 57 -6 0 -22 9 -35 19 -19 14 -21
22 -13 37 9 17 18 19 76 14 49 -4 71 -11 89 -29z m-1921 1 c13 -16 28 -43 31
-62 4 -18 15 -42 24 -52 9 -10 12 -18 7 -18 -5 0 -15 -10 -23 -22 -12 -19 -11
-23 9 -38 l23 -17 -31 -34 c-41 -45 -84 -70 -102 -59 -20 12 -19 106 2 126 13
13 20 14 38 4 35 -19 36 -3 3 63 -40 80 -45 96 -38 118 9 27 28 24 57 -9z
m858 8 c0 -5 10 -8 23 -6 12 2 30 -4 41 -13 10 -9 28 -16 40 -16 18 0 23 -9
32 -57 13 -62 11 -219 -2 -240 -5 -7 -7 -20 -6 -29 1 -8 -6 -24 -17 -34 -24
-21 -71 -17 -144 13 -16 7 -35 12 -43 12 -8 0 -14 4 -14 9 0 5 -7 12 -16 15
-9 4 -13 2 -8 -6 4 -6 -7 -3 -25 8 -17 10 -31 22 -31 27 0 5 17 26 38 46 64
60 90 136 68 192 -4 9 4 27 19 45 14 16 25 32 25 37 0 4 5 7 10 7 6 0 10 -4
10 -10z m-386 -45 c4 -20 16 -41 26 -48 16 -9 20 -23 20 -64 0 -29 -4 -53 -8
-53 -5 0 -19 11 -32 25 -13 14 -29 25 -37 25 -7 0 -13 5 -13 10 0 6 -4 10 -9
10 -8 0 -35 10 -71 26 -3 1 -15 5 -27 9 -28 9 -30 25 -3 25 28 0 107 39 114
56 10 27 34 15 40 -21z m292 -56 c3 -6 1 -16 -5 -22 -6 -6 -11 -18 -11 -27 0
-15 -42 -60 -56 -60 -11 0 4 71 21 96 16 25 39 31 51 13z m-581 -19 c3 -5 12
-7 19 -4 8 3 17 1 20 -4 3 -6 14 -8 25 -5 10 2 25 -3 34 -11 8 -9 22 -14 29
-11 8 3 27 -5 43 -19 15 -13 33 -22 39 -20 6 2 42 -25 80 -61 65 -62 68 -67
50 -79 -10 -8 -22 -12 -27 -9 -5 3 -16 -2 -25 -10 -16 -14 -94 -31 -136 -29
-11 1 -27 -3 -38 -9 -13 -7 -18 -6 -18 3 0 8 -3 9 -8 3 -6 -8 -44 -12 -62 -5
-3 1 -16 3 -30 5 -28 4 -87 13 -110 17 -8 2 -24 9 -35 15 -19 12 -19 13 13 38
17 15 32 32 32 40 0 7 5 15 11 17 7 2 13 26 14 53 3 64 2 61 21 79 17 18 50
21 59 6z m-510 -39 c8 -38 111 -141 153 -153 17 -5 32 -13 32 -19 0 -5 -16
-23 -35 -40 -39 -35 -57 -85 -45 -126 5 -16 9 -23 9 -18 1 6 5 4 10 -4 7 -10
13 -12 23 -5 7 6 24 11 36 12 13 0 32 10 42 21 9 12 25 21 34 21 9 0 16 7 16
15 0 8 5 15 11 15 7 0 8 -7 4 -17 -24 -58 -42 -188 -39 -281 1 -52 -2 -87 -9
-95 -7 -6 -18 -24 -26 -39 -15 -29 -35 -31 -86 -8 -16 7 -35 12 -41 11 -6 0
-24 6 -40 14 -16 8 -35 15 -41 15 -7 0 -13 4 -13 8 0 10 -77 52 -94 52 -11 0
-102 91 -144 144 -15 19 -21 114 -7 118 32 8 95 77 102 110 3 15 8 28 12 28 4
0 13 20 20 45 7 25 17 45 21 45 4 0 8 12 8 26 0 15 4 29 9 33 11 7 38 57 47
84 8 26 24 20 31 -12z m1775 -116 c0 -8 -4 -15 -10 -15 -5 0 -10 -6 -10 -14 0
-8 -6 -16 -14 -19 -8 -3 -16 -16 -18 -29 -2 -13 -6 -18 -10 -13 -8 13 17 86
34 96 19 13 28 11 28 -6z m-82 -99 c-2 -14 -11 -21 -25 -22 -24 -1 -30 15 -13
32 19 19 41 12 38 -10z m-1438 -6 c0 -13 -7 -20 -19 -20 -10 0 -21 -7 -25 -15
-3 -8 -10 -15 -16 -15 -5 0 -10 7 -10 15 0 8 5 15 10 15 6 0 20 9 32 20 12 11
23 20 25 20 2 0 3 -9 3 -20z m650 16 c0 -2 -7 -9 -15 -16 -13 -11 -14 -10 -9
4 5 14 24 23 24 12z m727 -38 c-3 -8 -6 -5 -6 6 -1 11 2 17 5 13 3 -3 4 -12 1
-19z m-1312 -8 c-3 -5 -10 -10 -16 -10 -5 0 -9 5 -9 10 0 6 7 10 16 10 8 0 12
-4 9 -10z m521 -16 c4 -14 2 -35 -3 -47 -5 -12 -11 -58 -13 -102 -4 -120 -5
-128 -18 -152 -7 -12 -14 -44 -15 -71 -4 -61 -9 -69 -44 -66 -81 7 -162 24
-169 35 -9 15 -54 10 -118 -12 -34 -12 -63 -25 -66 -28 -3 -3 -11 -7 -17 -8
-7 -2 -18 -4 -25 -5 -6 -2 -12 7 -12 19 -1 13 -4 23 -8 23 -5 0 -15 0 -23 0
-8 0 -15 -9 -15 -20 0 -11 7 -20 15 -20 8 0 15 -4 15 -9 0 -5 -16 -9 -35 -9
-42 0 -43 7 -10 46 23 27 24 36 22 130 -1 56 2 104 6 108 6 7 12 -19 8 -40 -1
-5 4 -13 10 -17 10 -6 10 -11 0 -22 -8 -11 -9 -17 -1 -22 6 -4 10 -12 9 -18
-4 -31 3 -45 22 -50 31 -8 37 22 10 45 -17 13 -19 18 -8 18 22 0 31 18 17 35
-7 8 -10 28 -8 45 3 17 0 30 -6 31 -22 1 -48 8 -53 12 -4 5 22 90 33 109 3 5
11 5 17 -1 16 -13 49 12 47 36 -4 30 -1 36 13 26 10 -9 133 -26 162 -24 6 1
40 3 77 5 37 2 73 8 80 13 7 5 24 10 37 11 13 0 29 6 34 11 17 17 26 13 33
-15z m239 16 c3 -5 16 -10 29 -10 12 0 27 -5 34 -12 11 -11 23 -13 95 -17 15
0 27 -7 27 -14 0 -16 -76 -22 -94 -8 -6 4 -27 14 -47 20 -36 11 -83 51 -61 51
6 0 14 -4 17 -10z m535 -22 c0 -7 -11 -18 -25 -25 -20 -9 -25 -8 -25 3 0 8 -5
14 -11 14 -7 0 -9 -10 -5 -25 5 -18 1 -27 -13 -35 -28 -14 -41 -12 -41 7 0 9
3 14 6 10 9 -8 30 14 38 41 6 17 15 22 42 22 21 0 34 -5 34 -12z m-730 -77 c0
-5 9 -11 20 -14 18 -5 20 -11 16 -64 -8 -94 -17 -157 -27 -175 -5 -9 -9 -32
-9 -50 0 -40 -14 -58 -41 -51 -20 6 -26 23 -8 23 6 0 9 7 6 15 -4 8 -2 17 2
19 9 6 23 149 25 248 1 32 4 58 9 58 4 0 7 -4 7 -9z m580 -1 c0 -5 -7 -10 -15
-10 -8 0 -15 5 -15 10 0 6 7 10 15 10 8 0 15 -4 15 -10z m-202 -50 c19 -33 28
-36 56 -15 12 9 41 15 71 15 58 0 95 -26 131 -95 32 -59 23 -106 -28 -146 -24
-19 -38 -38 -36 -49 3 -21 -39 -70 -60 -70 -8 0 -29 -11 -47 -24 -45 -35 -111
-42 -179 -21 -30 10 -61 15 -68 13 -7 -3 -17 -7 -23 -9 -5 -2 -48 -24 -95 -50
-47 -26 -89 -44 -94 -39 -5 5 -2 29 8 57 8 26 21 80 26 119 l11 71 85 29 84
28 -6 46 c-5 41 -3 50 22 80 30 35 101 90 116 90 5 0 17 -13 26 -30z m-1565
-38 c32 -79 118 -174 197 -218 19 -10 37 -22 40 -25 17 -21 178 -89 211 -89
25 0 30 -26 10 -51 l-18 -23 -68 19 c-68 18 -187 72 -193 87 -2 4 -8 8 -14 8
-15 0 -129 84 -155 114 -13 14 -23 33 -23 41 0 8 -3 15 -8 15 -8 0 -32 70 -32
94 0 20 21 66 31 66 4 0 14 -17 22 -38z m873 -272 c5 -5 23 -12 39 -15 17 -2
55 -9 85 -15 30 -6 82 -9 115 -8 58 2 60 1 63 -24 3 -29 -23 -62 -41 -51 -7 4
-46 8 -87 9 -41 1 -97 5 -125 10 -90 15 -176 10 -239 -15 -33 -12 -79 -25
-103 -28 -39 -5 -43 -3 -43 16 0 23 -16 29 -23 9 -2 -7 -8 -10 -12 -6 -19 18
6 38 47 38 24 0 61 7 83 16 22 8 47 17 56 20 9 3 38 16 65 29 52 25 104 31
120 15z m2624 -185 c0 -14 -4 -25 -10 -25 -5 0 -10 4 -10 9 0 5 -3 16 -6 25
-4 11 -1 16 10 16 10 0 16 -9 16 -25z m-62 -38 c2 -28 -1 -37 -12 -37 -18 0
-31 42 -22 66 10 27 31 9 34 -29z m-952 3 c46 0 113 -39 142 -83 18 -27 27
-56 30 -99 l5 -59 -39 6 c-22 4 -48 10 -59 15 -11 4 -39 15 -62 25 -43 18 -88
16 -146 -7 -39 -15 -62 -70 -61 -146 1 -54 5 -68 31 -100 17 -22 60 -53 104
-75 57 -30 74 -44 74 -60 0 -19 -7 -22 -42 -25 -23 -2 -47 -10 -53 -18 -7 -7
-21 -14 -32 -14 -19 0 -71 -44 -79 -67 -3 -10 -49 -21 -104 -24 -17 -1 -44 7
-52 15 -4 4 -8 45 -9 90 -1 73 -17 152 -33 166 -3 3 -11 14 -17 25 -6 11 -30
35 -54 53 -24 19 -50 45 -57 59 -17 32 -17 117 0 131 6 6 57 34 112 62 55 29
116 63 135 76 19 13 40 24 46 24 6 0 42 13 80 29 60 24 72 26 89 15 11 -8 34
-14 51 -14z m874 -5 c7 -9 13 -29 12 -44 -1 -40 -42 -131 -58 -131 -8 0 -14 1
-14 3 -12 62 -9 115 6 148 18 42 34 48 54 24z m243 -66 c-2 -19 -4 -41 -5 -49
-1 -8 -12 -28 -24 -43 -13 -16 -24 -34 -24 -42 0 -14 -74 -117 -124 -172 -18
-21 -47 -38 -82 -48 -29 -8 -56 -20 -59 -25 -9 -15 -35 -12 -35 4 0 8 16 46
35 85 19 38 35 74 35 80 0 6 10 28 23 49 13 20 26 44 30 52 20 45 134 165 172
180 30 13 62 -27 58 -71z m-333 -105 c0 -19 6 -43 12 -54 10 -16 10 -24 0 -40
-6 -11 -12 -27 -12 -36 0 -24 -23 -11 -31 17 -11 40 -10 103 3 131 16 34 28
26 28 -18z m-782 -53 c32 -16 72 -29 217 -71 17 -5 53 -11 82 -15 49 -6 76
-28 49 -38 -20 -8 -46 -99 -46 -158 l0 -52 -87 7 c-266 20 -423 132 -370 263
11 28 27 44 58 60 54 27 51 27 97 4z m720 -46 c1 -28 7 -60 13 -72 16 -31 4
-69 -33 -101 -59 -50 -106 -101 -138 -146 -23 -34 -35 -44 -48 -39 -49 19 -54
68 -20 178 20 63 30 78 106 153 97 97 116 101 120 27z m-2550 -41 c-10 -10
-28 6 -28 24 0 15 1 15 17 -1 9 -9 14 -19 11 -23z m-33 -4 c3 -5 4 -14 0 -20
-8 -13 -35 -1 -35 16 0 16 26 19 35 4z m-55 -20 c12 -8 10 -14 -15 -40 -16
-16 -33 -30 -39 -30 -5 0 -19 -9 -30 -19 -17 -16 -24 -17 -37 -7 -24 17 -4 39
49 55 29 8 42 17 39 26 -10 23 8 31 33 15z m1329 -16 c119 -30 182 -100 201
-221 8 -57 9 -86 1 -106 -6 -16 -11 -38 -11 -51 0 -37 -29 -121 -51 -150 l-21
-26 -86 74 c-48 40 -97 78 -109 85 -94 48 -176 -72 -138 -204 9 -28 22 -60 30
-71 8 -10 15 -26 15 -36 0 -9 3 -18 8 -20 4 -2 17 -18 30 -36 28 -40 24 -47
-50 -83 -119 -59 -219 -70 -300 -31 -26 12 -50 22 -53 22 -22 0 -141 154 -152
198 -6 26 29 107 74 168 13 17 23 35 23 41 0 5 9 18 20 28 11 10 20 24 20 32
0 7 4 13 9 13 5 0 30 28 54 63 48 65 256 287 271 287 4 0 22 11 38 25 33 28
62 28 177 -1z m1086 -1 c-29 -69 -46 -124 -51 -165 l-7 -48 -44 0 c-41 0 -45
2 -59 36 -12 28 -13 43 -5 67 6 16 11 41 11 53 0 13 10 35 22 49 18 21 30 25
81 25 52 0 58 -2 52 -17z m-2578 -115 c-6 -3 -15 -4 -19 -2 -4 3 -8 -9 -8 -25
0 -33 -16 -42 -27 -15 -5 13 -8 13 -15 2 -6 -9 -8 -6 -6 10 2 12 5 21 8 20 3
-2 19 7 35 19 21 15 32 18 37 10 4 -6 2 -15 -5 -19z m2776 -54 c-5 -15 0 -16
40 -12 33 4 47 2 47 -6 0 -24 -131 -136 -172 -147 -55 -14 -70 0 -40 41 12 16
22 33 22 38 0 5 19 30 42 55 42 47 73 63 61 31z m-2855 -22 c2 -14 -2 -22 -11
-22 -15 0 -29 34 -19 45 11 11 27 -2 30 -23z m-39 -48 c-14 -18 -24 -11 -15
11 3 9 11 13 16 10 8 -5 7 -11 -1 -21z m-39 -48 c-26 -32 -32 -20 -21 44 1 2
8 -3 18 -12 13 -14 14 -20 3 -32z m-84 -27 c3 -6 -13 -29 -37 -52 -38 -38 -40
-39 -20 -10 12 18 19 37 16 43 -3 5 -3 15 0 20 8 13 32 13 41 -1z m48 2 c3 -5
-1 -12 -10 -15 -20 -8 -29 -1 -19 13 8 13 22 14 29 2z m2333 -161 c-6 -101
-13 -142 -39 -227 -18 -61 -27 -77 -57 -96 -52 -34 -131 -119 -131 -139 0 -28
19 -21 61 23 22 23 42 39 45 36 5 -5 -24 -42 -68 -89 -21 -21 -23 -38 -5 -38
16 0 77 64 77 80 0 7 8 10 18 8 20 -4 29 -55 13 -71 -6 -6 -11 -19 -11 -29 0
-9 -18 -36 -40 -59 -33 -35 -43 -40 -66 -35 -35 9 -50 29 -68 91 -33 111 -39
180 -26 302 6 64 15 123 20 132 5 9 16 39 26 66 32 93 105 172 163 177 30 3
41 -2 64 -27 27 -28 28 -34 24 -105z m-2467 104 c0 -8 -4 -13 -9 -10 -5 3 -11
-3 -14 -14 -3 -11 -1 -23 4 -26 5 -3 -2 -15 -16 -26 -14 -10 -25 -26 -25 -34
0 -8 -4 -14 -9 -14 -5 0 -16 -6 -23 -13 -7 -7 -27 -23 -44 -35 -28 -19 -33
-20 -38 -6 -9 22 3 37 25 31 12 -3 19 0 19 9 0 8 -4 14 -10 14 -17 0 -11 25
10 38 18 11 20 10 20 -8 0 -22 1 -23 24 -14 12 5 13 9 3 25 -9 14 -9 21 2 31
11 10 14 10 18 1 3 -7 10 -13 16 -13 8 0 8 3 -1 12 -8 8 -6 18 11 39 25 32 37
36 37 13z m2170 -39 c4 -2 -5 -29 -20 -60 -15 -31 -33 -82 -39 -113 -16 -73
-24 -88 -47 -84 -18 4 -96 67 -103 84 -1 5 8 26 22 46 14 20 31 57 37 82 7 25
14 48 16 52 4 7 122 1 134 -7z m-385 -52 c19 -15 57 -48 83 -73 27 -25 79 -72
116 -105 67 -60 78 -78 52 -88 -28 -11 -46 -68 -46 -149 0 -43 -3 -78 -6 -78
-8 0 -48 22 -54 30 -3 3 -36 31 -75 62 -99 79 -138 123 -177 198 -28 56 -33
75 -33 138 0 62 3 76 20 89 28 20 78 10 120 -24z m415 10 c-1 -13 -29 -59 -30
-48 0 21 13 55 21 55 5 0 9 -3 9 -7z m-2410 -108 c-7 -9 -15 -13 -17 -11 -7 7
7 26 19 26 6 0 6 -6 -2 -15z m2357 -7 c-3 -8 -6 -5 -6 6 -1 11 2 17 5 13 3 -3
4 -12 1 -19z m-73 -248 c2 -41 5 -92 5 -113 1 -23 5 -36 11 -32 6 4 10 -10 10
-34 0 -23 -4 -41 -8 -41 -18 0 -51 48 -67 97 -15 45 -15 60 -5 105 12 50 37
104 45 96 2 -2 6 -37 9 -78z m316 -45 c0 -2 -7 -5 -15 -9 -9 -3 -15 0 -15 9 0
9 6 12 15 9 8 -4 15 -7 15 -9z m-269 -42 c14 -37 23 -121 11 -108 -17 19 -42
102 -36 119 8 22 13 20 25 -11z"/>
<path d="M1294 4027 c-3 -9 -3 -25 1 -34 6 -16 8 -16 18 5 7 16 7 26 -1 34 -8
8 -13 7 -18 -5z"/>
<path d="M1347 4033 c-10 -10 -8 -33 3 -33 5 0 14 9 20 20 8 15 8 20 -3 20 -8
0 -17 -3 -20 -7z"/>
<path d="M1560 3818 c-32 -12 -16 -24 43 -32 46 -7 60 1 35 21 -21 16 -52 21
-78 11z"/>
<path d="M1655 3200 c-27 -28 -31 -29 -87 -23 -62 6 -81 -9 -32 -27 50 -19
109 -12 138 16 25 25 36 64 18 64 -5 0 -21 -13 -37 -30z"/>
<path d="M1866 3832 c-14 -16 -15 -24 -5 -46 16 -34 33 -28 37 14 4 42 -9 56
-32 32z"/>
<path d="M1110 2363 c0 -30 3 -34 23 -31 16 2 23 11 25 31 2 15 0 27 -5 28 -4
0 -16 2 -25 4 -14 3 -18 -4 -18 -32z"/>
</g>
</svg>
